:SAMPLES-PER-SECOND 30
:FRAME-RANGE 1-2045
:FULLY-SPECIFIED
:DEGREES
1534
root  29.144 37.509 -38.9303 -167.946 51.1527 -172.592
RightUpLeg  -29.2782 1.15559 -5.40199
RightLeg  34.6249 1.44955 0.822633
RightFoot  -9.43871 -0.273844 12.5658
RightToes  -5.28216e-011 1.2921e-014 -6.02303e-014
Spine  12.3688 -3.16314 6.84405
Spine1  5.42739 -2.68465 0.208943
HEad  3.40298 52.0459 -16.9981
LeftShoulder1  1.52859 -3.2161 -17.0121
LeftArm  7.77428 5.1342 -60.7954
LeftForeArm  19.2599 -64.9537 -22.9869
LeftHand  -0.0513445 1.27129 1.27221
RightShoulder  1.21264 1.79205 17.1526
RightArm  -22.6086 -14.792 30.2309
RightForeArm  37.6515 73.7923 37.9866
RightHand  0.0889295 -1.63451 3.06796
LeftUpLeg  -31.2851 9.24763 -1.54226
LeftLeg  72.4723 2.09823 8.49048
LeftFoot  -7.42767 0.143632 -2.89898
LeftToes  9.43379e-011 5.24309e-011 -4.66411e-011
1535
root  29.9976 38.0135 -39.9609 -168.374 49.5827 -174.397
RightUpLeg  -26.3342 0.211755 -6.77036
RightLeg  32.0248 0.841803 0.322352
RightFoot  -9.9463 -0.232401 13.455
RightToes  -5.28216e-011 1.2921e-014 -6.02303e-014
Spine  11.222 -2.08744 6.81237
Spine1  4.98388 -1.59995 -0.296983
HEad  3.76062 53.0869 -17.1123
LeftShoulder1  1.36484 -2.50667 -17.0565
LeftArm  8.43178 6.13658 -59.4761
LeftForeArm  19.5463 -65.7275 -23.941
LeftHand  -0.0649556 1.59183 1.75222
RightShoulder  1.25516 1.99895 17.0247
RightArm  -21.5969 -14.739 30.7472
RightForeArm  38.6263 73.9025 38.1306
RightHand  0.089761 -1.74952 3.21477
LeftUpLeg  -35.6106 11.8082 -3.63443
LeftLeg  65.0313 2.94637 7.59391
LeftFoot  -9.32309 0.0916382 -2.026
LeftToes  9.43379e-011 5.24309e-011 -4.66411e-011
1536
root  30.8295 38.4735 -41.0725 -168.603 47.7902 -176.344
RightUpLeg  -23.7921 -1.65471 -8.34604
RightLeg  29.7727 0.959776 0.355009
RightFoot  -10.0046 -0.237398 14.4223
RightToes  -5.28216e-011 1.2921e-014 -6.02303e-014
Spine  9.14161 -1.25105 6.58264
Spine1  4.97176 -0.759193 -1.2051
HEad  4.26023 54.3981 -16.968
LeftShoulder1  1.20192 -1.83344 -16.9513
LeftArm  7.99872 7.70408 -58.4217
LeftForeArm  20.2763 -66.2784 -24.5911
LeftHand  -0.0423362 1.52027 1.04016
RightShoulder  1.30048 2.20269 16.9767
RightArm  -19.9063 -14.37 31.1868
RightForeArm  39.7738 74.1237 38.654
RightHand  0.0826969 -1.95551 3.2093
LeftUpLeg  -38.4527 13.2917 -6.07285
LeftLeg  54.1662 4.95132 7.81717
LeftFoot  -10.0471 0.0789385 -1.65057
LeftToes  9.43379e-011 5.24309e-011 -4.66411e-011
1537
root  31.6665 38.8179 -42.2157 -168.43 45.473 -177.234
RightUpLeg  -20.6608 -4.23927 -9.12512
RightLeg  27.6227 1.44932 0.591495
RightFoot  -10.182 -0.225506 15.3277
RightToes  -5.28216e-011 1.2921e-014 -6.02303e-014
Spine  7.25072 -0.694975 6.06452
Spine1  5.14287 -0.33215 -1.37463
HEad  4.59369 55.6317 -16.8907
LeftShoulder1  1.08962 -1.28681 -17.3165
LeftArm  7.74036 9.53387 -56.5708
LeftForeArm  20.8688 -67.3218 -26.0487
LeftHand  -0.0515066 1.59955 1.33515
RightShoulder  1.32763 2.38093 16.6968
RightArm  -17.9526 -13.24 31.7629
RightForeArm  40.6396 74.1965 38.693
RightHand  0.0763405 -2.25071 3.34216
LeftUpLeg  -39.1465 13.4443 -7.1623
LeftLeg  40.8073 8.0117 7.72957
LeftFoot  -7.71768 0.103198 -1.79724
LeftToes  9.43379e-011 5.24309e-011 -4.66411e-011
1538
root  32.4811 39.0111 -43.3934 -168.098 42.8359 -177.068
RightUpLeg  -16.8388 -6.18813 -9.24578
RightLeg  25.6015 1.42372 0.518643
RightFoot  -10.6536 -0.171129 16.2796
RightToes  -5.28216e-011 1.2921e-014 -6.02303e-014
Spine  6.07675 -0.53487 5.98679
Spine1  5.07451 -0.14508 -1.71823
HEad  5.1165 56.6285 -16.2726
LeftShoulder1  0.98174 -0.798158 -17.5271
LeftArm  6.78703 11.7336 -54.9833
LeftForeArm  21.9115 -68.2828 -27.4688
LeftHand  -0.0313632 1.68657 0.708906
RightShoulder  1.32591 2.44046 16.4016
RightArm  -15.8524 -11.5474 32.8518
RightForeArm  40.8804 74.0051 37.8959
RightHand  0.0626873 -2.60023 3.27649
LeftUpLeg  -37.9156 12.8914 -7.06307
LeftLeg  26.0401 13.3238 7.31805
LeftFoot  -5.8943 0.117691 -1.72947
LeftToes  9.43379e-011 5.24309e-011 -4.66411e-011
1539
root  33.268 38.9847 -44.6154 -167.78 40.7657 -175.921
RightUpLeg  -12.9576 -6.19569 -8.77084
RightLeg  24.6768 0.536904 0.0483313
RightFoot  -11.6295 -0.0344636 17.7894
RightToes  -5.28216e-011 1.2921e-014 -6.02303e-014
Spine  5.81878 -0.411198 6.59491
Spine1  4.83503 0.277631 -2.67749
HEad  5.54137 57.2649 -15.5185
LeftShoulder1  0.806286 -0.0436535 -17.6869
LeftArm  5.66008 14.0187 -53.6581
LeftForeArm  22.6325 -69.1181 -28.8732
LeftHand  0.0280575 1.7744 -1.23464
RightShoulder  1.32527 2.49272 16.1635
RightArm  -13.6036 -9.771 34.1049
RightForeArm  41.6527 74.0203 37.7405
RightHand  0.0458584 -3.08402 3.25906
LeftUpLeg  -35.0829 6.62401 -1.60262
LeftLeg  12.6762 26.708 4.78414
LeftFoot  -5.91087 0.165255 -2.73605
LeftToes  9.43379e-011 5.24309e-011 -4.66411e-011
1540
root  33.959 38.75 -45.9062 -167.508 39.3525 -174.515
RightUpLeg  -10.1769 -5.24904 -8.24879
RightLeg  25.9872 -0.306897 -0.385659
RightFoot  -12.9034 0.183634 19.7637
RightToes  -5.28216e-011 1.2921e-014 -6.02303e-014
Spine  5.64348 -0.134318 7.29875
Spine1  4.8409 0.857109 -3.67075
HEad  4.43142 57.6168 -16.0741
LeftShoulder1  0.656092 0.623117 -18.101
LeftArm  4.22114 16.3394 -52.3053
LeftForeArm  23.5718 -69.8848 -30.2502
LeftHand  0.0384283 1.85725 -1.6274
RightShoulder  1.32801 2.59496 15.7839
RightArm  -11.7651 -8.34639 35.85
RightForeArm  43.0238 74.2883 38.3749
RightHand  0.0282291 -3.57218 3.18893
LeftUpLeg  -34.0608 2.6713 1.74287
LeftLeg  3.53915 36.4396 3.15908
LeftFoot  -3.56594 0.106453 -1.25079
LeftToes  9.43379e-011 5.24309e-011 -4.66411e-011
1541
root  34.5461 38.2759 -47.3479 -169.161 35.8364 -174.607
RightUpLeg  -7.19425 -6.67014 -9.2467
RightLeg  30.471 0.0594114 -0.198125
RightFoot  -14.7727 0.594508 22.9377
RightToes  -5.28216e-011 1.2921e-014 -6.02303e-014
Spine  6.77871 -0.76882 6.27242
Spine1  3.69244 -0.180277 -2.59545
HEad  3.11499 57.446 -16.4713
LeftShoulder1  0.598384 0.895258 -18.4973
LeftArm  2.63505 18.6215 -51.2399
LeftForeArm  23.0333 -70.0395 -30.6786
LeftHand  0.0393266 1.90677 -1.69107
RightShoulder  1.36427 2.73666 15.8688
RightArm  -9.9157 -6.29807 37.0641
RightForeArm  42.4752 73.973 37.3415
RightHand  -0.00102464 -4.35804 2.81538
LeftUpLeg  -33.3412 0.938925 1.06787
LeftLeg  1.31713 38.508 3.06279
LeftFoot  -2.69606 0.132265 -1.53532
LeftToes  9.43379e-011 5.24309e-011 -4.66411e-011
1542
root  35.1185 37.566 -48.8571 -173.433 29.7825 -176.589
RightUpLeg  -2.8342 -11.6092 -13.3255
RightLeg  38.1255 3.02993 2.28249
RightFoot  -16.2641 1.01871 25.8764
RightToes  -5.28216e-011 1.2921e-014 -6.02303e-014
Spine  10.195 -2.28716 2.30981
Spine1  1.35672 -2.72971 0.410302
HEad  3.15974 56.9279 -15.0403
LeftShoulder1  0.563789 1.01236 -18.237
LeftArm  1.36879 20.465 -51.0827
LeftForeArm  21.2098 -69.1725 -29.2215
LeftHand  0.0410757 1.57547 -1.538
RightShoulder  1.39288 2.73263 16.405
RightArm  -8.13644 -4.50854 38.2539
RightForeArm  40.6549 73.427 35.925
RightHand  -0.0230282 -5.05174 2.27149
LeftUpLeg  -32.6947 -1.10063 -2.51562
LeftLeg  8.40424 35.7864 5.97879
LeftFoot  -1.44069 -0.314126 3.72621
LeftToes  9.43379e-011 5.24309e-011 -4.66411e-011
1543
root  35.6048 36.938 -50.288 -178.684 23.6297 -179.052
RightUpLeg  1.28189 -14.6817 -19.3356
RightLeg  47.9014 5.08606 5.68009
RightFoot  -13.2074 0.379522 28.3249
RightToes  -5.28216e-011 1.2921e-014 -6.02303e-014
Spine  15.3274 -3.60374 -2.92447
Spine1  -0.988187 -5.19809 3.01435
HEad  3.18298 56.7702 -13.8616
LeftShoulder1  0.542993 1.10155 -18.2924
LeftArm  0.0464722 22.4881 -50.515
LeftForeArm  20.1472 -68.7795 -28.6516
LeftHand  0.0269284 1.29641 -0.978907
RightShoulder  1.43367 2.70517 17.2619
RightArm  -6.02985 -2.21501 39.0977
RightForeArm  38.1865 72.2344 32.9398
RightHand  -0.0308612 -5.30624 2.16264
LeftUpLeg  -31.4882 -2.26861 -7.49671
LeftLeg  17.3895 29.8748 9.93413
LeftFoot  5.32096 -1.48703 9.90613
LeftToes  9.43379e-011 5.24309e-011 -4.66411e-011
